<svg width="61" height="61" viewBox="0 0 61 61" fill="none" xmlns="http://www.w3.org/2000/svg">
<circle cx="30.5" cy="30.5" r="30.5" fill="#6528F7"/>
<path fill-rule="evenodd" clip-rule="evenodd" d="M26.7126 26.9858C26.7126 26.5371 27.0764 26.1733 27.5251 26.1733H34.9514C35.4001 26.1733 35.7639 26.5371 35.7639 26.9858C35.7639 27.4346 35.4001 27.7983 34.9514 27.7983H27.5251C27.0764 27.7983 26.7126 27.4346 26.7126 26.9858Z" fill="white"/>
<path fill-rule="evenodd" clip-rule="evenodd" d="M26.8929 19.197C28.0623 18.9577 29.5039 18.8959 31.2386 18.8959C32.9735 18.8959 34.415 18.9577 35.5844 19.197C36.7685 19.4394 37.7443 19.8775 38.4775 20.6807C39.2021 21.4744 39.6052 22.5331 39.8363 23.8458C40.0669 25.1562 40.1393 26.8013 40.1393 28.8398C40.1393 29.6265 40.1407 30.3651 40.1419 31.058C40.1478 34.3348 40.1519 36.5875 40.0042 38.0567C39.916 38.9333 39.764 39.6774 39.4298 40.2118C39.2501 40.4992 39.0113 40.7373 38.7014 40.8959C38.3969 41.0517 38.0755 41.1042 37.7679 41.1042C37.0651 41.1042 36.3836 40.7176 35.8335 40.3354C35.2964 39.9623 34.7312 39.4791 34.1965 39.0223C34.1542 38.9861 34.112 38.95 34.07 38.9141C33.4797 38.4103 32.9252 37.9451 32.4049 37.6035C31.8652 37.2492 31.4858 37.1132 31.2386 37.1132C30.9915 37.1132 30.6121 37.2492 30.0724 37.6035C29.5521 37.9451 28.9976 38.4103 28.4073 38.9141C28.3653 38.95 28.3231 38.9861 28.2807 39.0223C27.7462 39.4791 27.1809 39.9623 26.6438 40.3354C26.0938 40.7176 25.4122 41.1042 24.7094 41.1042C24.4018 41.1042 24.0804 41.0517 23.776 40.8959C23.466 40.7373 23.2273 40.4992 23.0475 40.2118C22.7133 39.6774 22.5613 38.9333 22.4731 38.0567C22.3254 36.5875 22.3295 34.3348 22.3354 31.058C22.3367 30.3651 22.338 29.6265 22.338 28.8398C22.338 26.8013 22.4104 25.1562 22.641 23.8458C22.8721 22.5331 23.2752 21.4744 23.9998 20.6807C24.7329 19.8775 25.7088 19.4394 26.8929 19.197ZM24.2414 24.1275C24.0367 25.2907 23.963 26.8174 23.963 28.8398C23.963 29.6457 23.9617 30.3963 23.9605 31.0953C23.955 34.3731 23.9513 36.5152 24.09 37.8941C24.1755 38.7439 24.3051 39.158 24.4253 39.3502C24.4727 39.426 24.5044 39.4432 24.5161 39.4492C24.5333 39.4581 24.5848 39.4792 24.7094 39.4792C24.8705 39.4792 25.1897 39.367 25.7166 39.0009C26.1837 38.6763 26.6889 38.2448 27.2437 37.771C27.2797 37.7402 27.3159 37.7093 27.3523 37.6783C27.9309 37.1844 28.561 36.6518 29.1805 36.2451C29.7807 35.8511 30.4962 35.4882 31.2386 35.4882C31.9811 35.4882 32.6967 35.8511 33.2968 36.2451C33.9163 36.6518 34.5465 37.1844 35.1251 37.6783C35.1615 37.7093 35.1976 37.7402 35.2336 37.7709C35.7884 38.2447 36.2936 38.6763 36.7607 39.0009C37.2876 39.367 37.6068 39.4792 37.7679 39.4792C37.8925 39.4792 37.944 39.4581 37.9612 39.4492C37.9729 39.4432 38.0046 39.426 38.052 39.3502C38.1722 39.158 38.3018 38.7439 38.3873 37.8941C38.526 36.5152 38.5224 34.3731 38.5168 31.0952C38.5156 30.3962 38.5143 29.6457 38.5143 28.8398C38.5143 26.8174 38.4406 25.2907 38.2359 24.1275C38.0315 22.9667 37.71 22.2501 37.2774 21.7762C36.8534 21.3118 36.2397 20.9898 35.2586 20.789C34.2627 20.5852 32.9635 20.5209 31.2386 20.5209C29.5138 20.5209 28.2145 20.5852 27.2187 20.789C26.2376 20.9898 25.6239 21.3118 25.1999 21.7762C24.7673 22.2501 24.4458 22.9667 24.2414 24.1275Z" fill="white"/>
</svg>
