<svg width="36" height="36" viewBox="0 0 36 36" fill="none" xmlns="http://www.w3.org/2000/svg">
<path d="M18 33.594C6.9255 33.594 3 29.6685 3 18.594C3 7.5195 6.9255 3.594 18 3.594C18.621 3.594 19.125 4.098 19.125 4.719C19.125 5.34 18.621 5.844 18 5.844C8.229 5.844 5.25 8.823 5.25 18.594C5.25 28.365 8.229 31.344 18 31.344C27.771 31.344 30.75 28.365 30.75 18.594C30.75 17.973 31.254 17.469 31.875 17.469C32.496 17.469 33 17.973 33 18.594C33 29.6685 29.0745 33.594 18 33.594Z" fill="#FFFFFF"/>
<path fill-rule="evenodd" clip-rule="evenodd" d="M28.8547 14.6729L30.4428 12.8799C32.1708 10.9284 31.9878 7.93588 30.0378 6.20638C29.0928 5.36938 27.8718 4.94938 26.6178 5.02738C25.3578 5.10388 24.2028 5.66788 23.3658 6.61288L14.5398 16.5849C11.8038 19.6719 13.6758 23.7534 13.7568 23.9259C13.8903 24.2094 14.1363 24.4254 14.4348 24.5184C14.5203 24.5469 15.5163 24.8514 16.8288 24.8514C18.3063 24.8514 20.1858 24.4629 21.6138 22.8489L28.6161 14.9424C28.6623 14.9045 28.7061 14.8624 28.7469 14.8161C28.7872 14.7706 28.8232 14.7227 28.8547 14.6729ZM15.6123 22.4874C16.5528 22.6584 18.6288 22.8264 19.9293 21.3579L26.3056 14.1583L22.5984 10.875L16.2258 18.0774C14.8938 19.5789 15.3183 21.5814 15.6123 22.4874ZM24.0894 9.18994L27.7983 12.4729L28.7583 11.3889C29.6628 10.3659 29.5683 8.79688 28.5468 7.89238C28.0503 7.45438 27.4068 7.23088 26.7543 7.27288C26.0943 7.31488 25.4898 7.60888 25.0503 8.10388L24.0894 9.18994Z" fill="#FFFFFF"/>
</svg>
