<svg width="363" height="189" viewBox="0 0 363 189" fill="none" xmlns="http://www.w3.org/2000/svg">
<path d="M0 187L4.5375 186.97L9.075 186.927L13.6125 186.865L18.15 186.778L22.6875 186.657L27.225 186.49L31.7625 186.263L36.3 185.956L40.8375 185.547L45.375 185.006L49.9125 184.301L54.45 183.39L58.9875 182.228L63.525 180.761L68.0625 178.931L72.6 176.674L77.1375 173.922L81.675 170.606L86.2125 166.659L90.75 162.017L95.2875 156.624L99.825 150.439L104.363 143.434L108.9 135.608L113.438 126.981L117.975 117.606L122.513 107.567L127.05 96.9827L131.588 86.0044L136.125 74.8163L140.663 63.63L145.2 52.6794L149.738 42.2132L154.275 32.4852L158.813 23.7454L163.35 16.2282L167.888 10.1432L172.425 5.66447L176.963 2.923L181.5 2L186.038 2.923L190.575 5.66447L195.113 10.1432L199.65 16.2282L204.188 23.7454L208.725 32.4852L213.263 42.2132L217.8 52.6794L222.338 63.63L226.875 74.8163L231.413 86.0044L235.95 96.9827L240.488 107.567L245.025 117.606L249.563 126.981L254.1 135.608L258.638 143.434L263.175 150.439L267.713 156.624L272.25 162.017L276.788 166.659L281.325 170.606L285.863 173.922L290.4 176.674L294.938 178.931L299.475 180.761L304.013 182.228L308.55 183.39L313.088 184.301L317.625 185.006L322.163 185.547L326.7 185.956L331.238 186.263L335.775 186.49L340.313 186.657L344.85 186.778L349.388 186.865L353.925 186.927L358.463 186.97L363 187" stroke="#F1884D" stroke-width="3"/>
</svg>
